name C:\Users\u0101727\Documents\MyRepositories\upper-imu-dc\Results\main_tracking\Case_44\FLX01_orientations_groundFrame.mot
datacolumns 13
datarows 14
range 3.51000000 3.64000000
endheader 
time	radius_imu_[0][0]	radius_imu_[0][1]	radius_imu_[0][2]	radius_imu_[1][0]	radius_imu_[1][1]	radius_imu_[1][2]	radius_imu_[2][0]	radius_imu_[2][1]	radius_imu_[2][2]	radius_imu_x	radius_imu_y	radius_imu_z	
          3.51000000	          0.95469618	         -0.11985728	         -0.27237737	         -0.04591025	         -0.96366601	          0.26313509	         -0.29401947	         -0.23870915	         -0.92551094	         -2.86458871	         -0.27586296	          0.12489152	
          3.52000000	          0.95489817	         -0.12033720	         -0.27145615	         -0.04654916	         -0.96356189	          0.26340399	         -0.29326210	         -0.23888793	         -0.92570508	         -2.86437512	         -0.27490567	          0.12536014	
          3.53000000	          0.95508874	         -0.12083761	         -0.27056194	         -0.04719512	         -0.96345110	          0.26369414	         -0.29253737	         -0.23908210	         -0.92588425	         -2.86413618	         -0.27397670	          0.12585110	
          3.54000000	          0.95526767	         -0.12135779	         -0.26969605	         -0.04784691	         -0.96333349	          0.26400617	         -0.29184644	         -0.23929244	         -0.92604794	         -2.86387109	         -0.27307737	          0.12636371	
          3.55000000	          0.95543465	         -0.12189758	         -0.26885982	         -0.04850388	         -0.96320893	          0.26434055	         -0.29119066	         -0.23951938	         -0.92619570	         -2.86357929	         -0.27220907	          0.12689781	
          3.56000000	          0.95558927	         -0.12245734	         -0.26805473	         -0.04916595	         -0.96307731	          0.26469756	         -0.29057159	         -0.23976299	         -0.92632708	         -2.86326038	         -0.27137330	          0.12745385	
          3.57000000	          0.95573102	         -0.12303801	         -0.26728238	         -0.04983362	         -0.96293853	          0.26507736	         -0.28999109	         -0.24002301	         -0.92644165	         -2.86291407	         -0.27057170	          0.12803286	
          3.58000000	          0.95585922	         -0.12364115	         -0.26654460	         -0.05050797	         -0.96279245	          0.26548002	         -0.28945138	         -0.24029890	         -0.92653890	         -2.86254018	         -0.26980614	          0.12863654	
          3.59000000	          0.95597303	         -0.12426894	         -0.26584354	         -0.05119061	         -0.96263895	          0.26590557	         -0.28895515	         -0.24058986	         -0.92661828	         -2.86213849	         -0.26907884	          0.12926724	
          3.60000000	          0.95607144	         -0.12492421	         -0.26518172	         -0.05188372	         -0.96247783	          0.26635411	         -0.28850560	         -0.24089494	         -0.92667909	         -2.86170875	         -0.26839238	          0.12992800	
          3.61000000	          0.95615320	         -0.12561045	         -0.26456206	         -0.05258996	         -0.96230883	          0.26682581	         -0.28810651	         -0.24121304	         -0.92672051	         -2.86125052	         -0.26774977	          0.13062262	
          3.62000000	          0.95621684	         -0.12633184	         -0.26398790	         -0.05331253	         -0.96213162	          0.26732100	         -0.28776226	         -0.24154298	         -0.92674153	         -2.86076318	         -0.26715445	          0.13135557	
          3.63000000	          0.95626071	         -0.12709323	         -0.26346301	         -0.05405514	         -0.96194577	          0.26784022	         -0.28747780	         -0.24188355	         -0.92674099	         -2.86024588	         -0.26661029	          0.13213210	
          3.64000000	          0.95628293	         -0.12790018	         -0.26299146	         -0.05482199	         -0.96175073	          0.26838422	         -0.28725862	         -0.24223353	         -0.92671754	         -2.85969745	         -0.26612151	          0.13295816	
